<svg xmlns="http://www.w3.org/2000/svg" viewBox="0 0 400 400" width="400" height="400">
  <!-- Background -->
  <circle cx="200" cy="200" r="190" fill="#f1f5f9"/>
  
  <!-- Body -->
  <ellipse cx="200" cy="320" rx="100" ry="80" fill="#6366f1"/>
  
  <!-- Neck -->
  <rect x="170" y="220" width="60" height="60" fill="#fca5a5"/>
  
  <!-- Head -->
  <circle cx="200" cy="180" r="90" fill="#fca5a5"/>
  
  <!-- Hair -->
  <path d="M 110,180 Q 130,80 200,80 Q 270,80 290,180" 
        fill="#4b5563"/>
  <ellipse cx="200" cy="90" rx="80" ry="30" fill="#4b5563"/>
  
  <!-- Glasses -->
  <g stroke="#374151" stroke-width="4" fill="none">
    <circle cx="165" cy="175" r="25"/>
    <circle cx="235" cy="175" r="25"/>
    <line x1="190" y1="175" x2="210" y2="175"/>
  </g>
  
  <!-- Eyes -->
  <circle cx="165" cy="175" r="8" fill="#1f2937"/>
  <circle cx="235" cy="175" r="8" fill="#1f2937"/>
  
  <!-- Smile -->
  <path d="M 160,220 Q 200,250 240,220" 
        fill="none" 
        stroke="#374151" 
        stroke-width="4" 
        stroke-linecap="round"/>
  
  <!-- Tie -->
  <polygon points="190,280 210,280 200,340" fill="#ef4444"/>
  <rect x="190" y="270" width="20" height="15" fill="#dc2626"/>
  
  <!-- Arms -->
  <ellipse cx="90" cy="300" rx="25" ry="60" fill="#6366f1" transform="rotate(30 90 300)"/>
  <ellipse cx="310" cy="300" rx="25" ry="60" fill="#6366f1" transform="rotate(-30 310 300)"/>
  
  <!-- Hands holding money -->
  <circle cx="60" cy="340" r="20" fill="#fca5a5"/>
  <rect x="40" y="320" width="40" height="25" fill="#10b981" rx="2"/>
  <text x="60" y="337" font-family="Arial" font-size="16" fill="white" text-anchor="middle">$</text>
  
  <circle cx="340" cy="340" r="20" fill="#fca5a5"/>
  <rect x="320" y="320" width="40" height="25" fill="#10b981" rx="2"/>
  <text x="340" y="337" font-family="Arial" font-size="16" fill="white" text-anchor="middle">$</text>
</svg>