<svg xmlns="http://www.w3.org/2000/svg" viewBox="0 0 800 500" width="800" height="500">
  <defs>
    <linearGradient id="bgGradient" x1="0%" y1="0%" x2="100%" y2="100%">
      <stop offset="0%" style="stop-color:#6366f1;stop-opacity:1" />
      <stop offset="100%" style="stop-color:#8b5cf6;stop-opacity:1" />
    </linearGradient>
    <linearGradient id="barGradient" x1="0%" y1="100%" x2="0%" y2="0%">
      <stop offset="0%" style="stop-color:#10b981;stop-opacity:1" />
      <stop offset="100%" style="stop-color:#34d399;stop-opacity:1" />
    </linearGradient>
  </defs>
  
  <!-- Background -->
  <rect width="800" height="500" fill="url(#bgGradient)"/>
  
  <!-- Title area - clear space at top -->
  <rect x="0" y="0" width="800" height="120" fill="url(#bgGradient)"/>
  
  <!-- Title text -->
  <text x="400" y="60" 
        font-family="Arial, sans-serif" 
        font-size="42" 
        font-weight="bold" 
        fill="white" 
        text-anchor="middle">Compound Interest</text>
  
  <text x="400" y="100" 
        font-family="Arial, sans-serif" 
        font-size="20" 
        fill="rgba(255,255,255,0.9)" 
        text-anchor="middle">The Eighth Wonder of the World</text>
  
  <!-- Decorative circles - moved away from title -->
  <circle cx="80" cy="350" r="120" fill="white" opacity="0.05"/>
  <circle cx="720" cy="380" r="150" fill="white" opacity="0.05"/>
  
  <!-- Chart area background -->
  <rect x="50" y="140" width="700" height="320" fill="rgba(255,255,255,0.03)" rx="10"/>
  
  <!-- Growing bars representing compound growth -->
  <!-- Year 1 -->
  <rect x="100" y="420" width="60" height="20" fill="url(#barGradient)" rx="4"/>
  <text x="130" y="460" font-family="Arial" font-size="12" fill="white" text-anchor="middle">Year 1</text>
  
  <!-- Year 5 -->
  <rect x="200" y="390" width="60" height="50" fill="url(#barGradient)" rx="4"/>
  <text x="230" y="460" font-family="Arial" font-size="12" fill="white" text-anchor="middle">Year 5</text>
  
  <!-- Year 10 -->
  <rect x="300" y="330" width="60" height="110" fill="url(#barGradient)" rx="4"/>
  <text x="330" y="460" font-family="Arial" font-size="12" fill="white" text-anchor="middle">Year 10</text>
  
  <!-- Year 20 -->
  <rect x="400" y="240" width="60" height="200" fill="url(#barGradient)" rx="4"/>
  <text x="430" y="460" font-family="Arial" font-size="12" fill="white" text-anchor="middle">Year 20</text>
  
  <!-- Year 30 -->
  <rect x="500" y="160" width="60" height="280" fill="url(#barGradient)" rx="4"/>
  <text x="530" y="460" font-family="Arial" font-size="12" fill="white" text-anchor="middle">Year 30</text>
  
  <!-- Year 40 -->
  <rect x="600" y="90" width="60" height="350" fill="url(#barGradient)" rx="4"/>
  <text x="630" y="460" font-family="Arial" font-size="12" fill="white" text-anchor="middle">Year 40</text>
  
  <!-- Growth arrow - positioned to not overlap text -->
  <path d="M 150,400 L 650,140" 
        fill="none" 
        stroke="#fbbf24" 
        stroke-width="4" 
        stroke-dasharray="10,5"/>
  <polygon points="650,140 640,155 660,155" fill="#fbbf24"/>
  
  <!-- Dollar signs floating - positioned away from title -->
  <text x="720" y="200" font-family="Arial" font-size="35" fill="rgba(255,255,255,0.3)">$</text>
  <text x="60" y="280" font-family="Arial" font-size="28" fill="rgba(255,255,255,0.3)">$</text>
  <text x="750" y="320" font-family="Arial" font-size="30" fill="rgba(255,255,255,0.3)">$</text>
</svg>